<svg width="662" height="100" viewBox="0 0 662 100" fill="none" xmlns="http://www.w3.org/2000/svg">
<g clip-path="url(#clip0_38096_121480)">
<path d="M537.633 88.3H525.017V32.06H536.873V36.696H537.101C540.445 32.516 545.081 30.616 550.325 30.616C562.333 30.616 570.845 40.42 570.845 53.568C570.845 65.576 562.409 75.684 550.325 75.684C545.385 75.684 541.053 74.164 537.633 70.44V88.3ZM547.665 63.904C553.669 63.904 558.229 59.04 558.229 53.188C558.229 47.26 553.669 42.396 547.589 42.396C541.813 42.396 537.101 47.108 537.101 53.188C537.101 59.116 541.661 63.904 547.665 63.904Z" fill="#1F222B"/>
<path d="M518.632 52.96C518.632 66.184 508.6 75.532 495.908 75.532C483.064 75.532 473.184 66.032 473.184 53.112C473.184 40.04 483.292 30.692 495.908 30.692C508.6 30.692 518.632 40.192 518.632 52.96ZM495.908 63.752C501.836 63.752 506.016 58.736 506.016 53.112C506.016 47.488 501.76 42.472 495.832 42.472C490.284 42.472 485.8 47.336 485.8 53.112C485.8 58.888 490.208 63.752 495.908 63.752Z" fill="#1F222B"/>
<path d="M468.774 52.96C468.774 66.184 458.742 75.532 446.05 75.532C433.206 75.532 423.326 66.032 423.326 53.112C423.326 40.04 433.434 30.692 446.05 30.692C458.742 30.692 468.774 40.192 468.774 52.96ZM446.05 63.752C451.978 63.752 456.158 58.736 456.158 53.112C456.158 47.488 451.902 42.472 445.974 42.472C440.426 42.472 435.942 47.336 435.942 53.112C435.942 58.888 440.35 63.752 446.05 63.752Z" fill="#1F222B"/>
<path d="M416.932 74.24H404.316V18H416.932V74.24Z" fill="#1F222B"/>
<path d="M395.567 74.24H383.559V69.68H383.407C381.051 73.556 376.795 75.608 370.791 75.608C358.023 75.608 349.663 65.804 349.663 53.036C349.663 40.42 358.251 30.616 370.563 30.616C375.427 30.616 379.379 32.06 382.951 35.632V18H395.567V74.24ZM372.843 63.828C378.999 63.828 383.635 59.192 383.635 52.96C383.635 47.108 379.151 42.396 372.919 42.396C366.991 42.396 362.279 46.804 362.279 52.96C362.279 59.344 366.763 63.828 372.843 63.828Z" fill="#1F222B"/>
<path d="M345.066 56.988H313.45C314.134 61.776 318.162 64.968 323.33 64.968C326.75 64.968 328.954 63.676 331.006 61.016H343.926C339.898 70.212 332.222 75.608 323.33 75.608C311.17 75.608 300.986 65.804 300.986 53.264C300.986 41.104 310.714 30.616 323.102 30.616C335.718 30.616 345.37 40.572 345.37 53.644C345.37 54.86 345.294 55.848 345.066 56.988ZM313.602 48.476H332.754C331.766 44.144 327.966 41.256 323.102 41.256C318.542 41.256 314.59 43.992 313.602 48.476Z" fill="#1F222B"/>
<path d="M296.424 43.916H284.036C283.96 41.484 282.212 40.724 280.16 40.724C278.032 40.724 276.512 41.94 276.512 43.536C276.512 45.816 278.564 46.956 284.416 48.476C294.448 51.136 297.716 55.164 297.716 61.32C297.716 70.136 290.116 75.684 280.54 75.684C271.04 75.684 264.276 70.288 263.364 61.7H275.904C276.284 64.36 278.184 65.576 280.692 65.576C282.896 65.576 285.1 64.284 285.1 62.308C285.1 59.952 283.656 58.736 277.348 56.76C266.708 53.492 263.896 49.312 263.896 44.372C263.896 36.012 271.724 30.616 280.236 30.616C289.356 30.616 295.816 35.632 296.424 43.916Z" fill="#1F222B"/>
<path d="M259.715 52.96C259.715 66.184 249.683 75.532 236.991 75.532C224.147 75.532 214.267 66.032 214.267 53.112C214.267 40.04 224.375 30.692 236.991 30.692C249.683 30.692 259.715 40.192 259.715 52.96ZM236.991 63.752C242.919 63.752 247.099 58.736 247.099 53.112C247.099 47.488 242.843 42.472 236.915 42.472C231.367 42.472 226.883 47.336 226.883 53.112C226.883 58.888 231.291 63.752 236.991 63.752Z" fill="#1F222B"/>
<path d="M207.873 74.24H195.257V18H207.873V74.24Z" fill="#1F222B"/>
<path d="M161.138 75.639C166.654 75.6415 172.057 74.0412 176.719 71.0241C181.381 68.007 185.111 63.6973 187.473 58.5962L178.183 53.1066L176.067 51.8505C174.69 55.5169 172.103 58.5745 168.754 60.4928C165.405 62.4112 161.505 63.0693 157.732 62.3529C153.958 61.6365 150.548 59.5909 148.094 56.5709C145.64 53.551 144.297 49.7472 144.297 45.8195C144.297 41.8918 145.64 38.088 148.094 35.0681C150.548 32.0481 153.958 30.0025 157.732 29.2861C161.505 28.5698 165.405 29.2278 168.754 31.1462C172.103 33.0645 174.69 36.1221 176.067 39.7885L178.183 38.5433L187.473 33.0536C185.24 28.2304 181.784 24.1088 177.464 21.1188C173.144 18.1289 168.119 16.3802 162.913 16.0553C157.707 15.7304 152.512 16.8412 147.869 19.2717C143.226 21.7022 139.305 25.3634 136.516 29.8732C133.728 34.383 132.172 39.5762 132.014 44.9107C131.855 50.2453 133.098 55.5257 135.613 60.201C138.128 64.8764 141.823 68.7752 146.313 71.4907C150.803 74.2061 155.922 75.6388 161.138 75.639V75.639Z" fill="#1F222B"/>
<path d="M590.659 61.3401H578V74.0345H590.659V61.3401Z" fill="#1F222B"/>
<path d="M641.789 74.0833V32.5187H630.537V36.9163C629.506 34.9518 627.886 33.3773 625.916 32.4241C623.49 31.4196 620.885 30.9445 618.269 31.0292C615.366 30.9848 612.484 31.5313 609.79 32.6369C607.233 33.665 604.917 35.2364 602.997 37.2473C601.121 39.2982 599.661 41.7088 598.7 44.3403C597.641 47.2182 597.116 50.2732 597.152 53.3483C597.116 56.4346 597.624 59.5023 598.654 62.4036C599.562 65.0447 601.003 67.4611 602.882 69.4966C604.723 71.4497 606.942 72.9879 609.397 74.0124C612.064 75.1304 614.925 75.6852 617.807 75.6438C624.276 75.6438 628.458 73.6814 630.422 69.7803V74.2725L641.789 74.0833ZM628.92 57.5331C628.413 58.7804 627.693 59.9252 626.794 60.9141C625.876 61.8683 624.775 62.617 623.56 63.1129C622.26 63.6489 620.871 63.9219 619.47 63.9168C618.092 63.9175 616.727 63.6445 615.45 63.1129C614.213 62.5688 613.103 61.763 612.193 60.7486C611.266 59.7723 610.529 58.625 610.021 57.3676C608.973 54.6889 608.973 51.7003 610.021 49.0216C610.516 47.7753 611.237 46.6361 612.146 45.6643C613.044 44.6454 614.148 43.8386 615.381 43.3C616.651 42.776 618.009 42.5109 619.378 42.5197C620.792 42.5069 622.196 42.7718 623.514 43.3C624.745 43.8007 625.863 44.5575 626.794 45.5224C627.714 46.5574 628.435 47.7606 628.92 49.0689C629.436 50.392 629.695 51.8055 629.682 53.2301C629.699 54.7011 629.44 56.1618 628.92 57.5331Z" fill="#1F222B"/>
<path d="M662 32.5168H649.894V74.0342H662V32.5168Z" fill="#1F222B"/>
<path d="M661.998 18.6428H649.894V28.0987H661.998V18.6428Z" fill="#1F222B"/>
</g>
<path d="M0.424623 49.6765C0.339767 56.2176 1.55939 62.7103 4.01272 68.7779C6.46604 74.8455 10.1042 80.3673 14.7161 85.0227C19.3281 89.6781 24.8219 93.3744 30.8788 95.8973C36.9358 98.4202 43.4352 99.7193 50 99.7193C56.5648 99.7193 63.0643 98.4202 69.1212 95.8973C75.1782 93.3744 80.672 89.6781 85.2839 85.0227C89.8958 80.3673 93.534 74.8455 95.9873 68.7779C98.4406 62.7103 99.6603 56.2176 99.5754 49.6765C99.5754 49.5115 99.5754 49.3546 99.5754 49.1895H71.7496C71.7496 49.3546 71.7496 49.5115 71.7496 49.6765C71.7496 53.9658 70.473 58.1587 68.0814 61.7249C65.6898 65.2912 62.2906 68.0706 58.3136 69.7117C54.3367 71.3527 49.9606 71.7817 45.739 70.9443C41.5174 70.1069 37.6398 68.0408 34.5966 65.0072C31.5535 61.9737 29.4815 58.109 28.6428 53.902C27.804 49.695 28.2361 45.3346 29.8845 41.3723C31.5329 37.4101 34.3235 34.0239 37.9033 31.6421C41.4831 29.2603 45.6914 27.9899 49.9959 27.9915H50.0704L50.0373 0.280626C43.524 0.275203 37.0735 1.54886 31.0545 4.02881C25.0354 6.50876 19.5659 10.1464 14.9583 14.7338C10.3508 19.3211 6.69575 24.7683 4.20197 30.764C1.70819 36.7597 0.424621 43.1863 0.424623 49.6765Z" fill="#1F222B"/>
<path d="M57.1534 0.801147V29.2137C60.1811 30.2616 62.939 31.9629 65.2303 34.1961C67.5215 36.4293 69.2895 39.1392 70.4077 42.1323H99.004C97.3792 31.6897 92.4381 22.0411 84.906 14.6024C77.3738 7.16375 67.6471 2.32669 57.1534 0.801147V0.801147Z" fill="#41A3FF"/>
<defs>
<clipPath id="clip0_38096_121480">
<rect width="530" height="74" fill="white" transform="translate(132 15)"/>
</clipPath>
</defs>
</svg>
