<svg
  fill="none"
  height="488"
  viewBox="0 0 1060 488"
  width="1060"
  xmlns="http://www.w3.org/2000/svg"
>
  <title>Closedloop vertical logo on dark</title>
  <path
    d="M403.087 127.172C402.87 143.917 405.992 160.539 412.273 176.072C418.553 191.605 427.867 205.741 439.673 217.658C451.48 229.576 465.544 239.039 481.05 245.497C496.556 251.956 513.194 255.282 530 255.282C546.806 255.282 563.445 251.956 578.95 245.497C594.456 239.039 608.52 229.576 620.327 217.658C632.133 205.741 641.447 191.605 647.728 176.072C654.008 160.539 657.13 143.917 656.913 127.172C656.913 126.75 656.913 126.348 656.913 125.926H585.679C585.679 126.348 585.679 126.75 585.679 127.172C585.679 138.153 582.411 148.887 576.288 158.016C570.166 167.146 561.464 174.261 551.283 178.462C541.102 182.663 529.899 183.761 519.092 181.618C508.284 179.474 498.358 174.185 490.567 166.419C482.777 158.653 477.473 148.76 475.325 137.99C473.178 127.22 474.285 116.057 478.504 105.914C482.724 95.7701 489.868 87.1016 499.032 81.0042C508.197 74.9068 518.97 71.6545 529.989 71.6587H530.18L530.095 0.718794C513.421 0.704911 496.908 3.96548 481.499 10.3142C466.091 16.6628 452.089 25.9751 440.293 37.7188C428.498 49.4625 419.141 63.4073 412.757 78.7562C406.373 94.1052 403.087 110.557 403.087 127.172Z"
    fill="white"
  />
  <path
    d="M548.313 2.05127V74.7874C556.064 77.4699 563.124 81.8253 568.99 87.5423C574.855 93.2593 579.381 100.197 582.244 107.859H655.45C651.291 81.1261 638.642 56.4256 619.359 37.3826C600.077 18.3395 575.177 5.95666 548.313 2.05127V2.05127Z"
    fill="#41A3FF"
  />
  <g clip-path="url(#clip0_38653_4909)">
    <path
      d="M811.265 482.6H786.033V370.12H809.745V379.392H810.201C816.889 371.032 826.161 367.232 836.649 367.232C860.665 367.232 877.689 386.84 877.689 413.136C877.689 437.152 860.817 457.368 836.649 457.368C826.769 457.368 818.105 454.328 811.265 446.88V482.6ZM831.329 433.808C843.337 433.808 852.457 424.08 852.457 412.376C852.457 400.52 843.337 390.792 831.177 390.792C819.625 390.792 810.201 400.216 810.201 412.376C810.201 424.232 819.321 433.808 831.329 433.808Z"
      fill="white"
    />
    <path
      d="M773.263 411.92C773.263 438.368 753.199 457.064 727.815 457.064C702.127 457.064 682.367 438.064 682.367 412.224C682.367 386.08 702.583 367.384 727.815 367.384C753.199 367.384 773.263 386.384 773.263 411.92ZM727.815 433.504C739.671 433.504 748.031 423.472 748.031 412.224C748.031 400.976 739.519 390.944 727.663 390.944C716.567 390.944 707.599 400.672 707.599 412.224C707.599 423.776 716.415 433.504 727.815 433.504Z"
      fill="white"
    />
    <path
      d="M673.549 411.92C673.549 438.368 653.485 457.064 628.101 457.064C602.413 457.064 582.653 438.064 582.653 412.224C582.653 386.08 602.869 367.384 628.101 367.384C653.485 367.384 673.549 386.384 673.549 411.92ZM628.101 433.504C639.957 433.504 648.317 423.472 648.317 412.224C648.317 400.976 639.805 390.944 627.949 390.944C616.853 390.944 607.885 400.672 607.885 412.224C607.885 423.776 616.701 433.504 628.101 433.504Z"
      fill="white"
    />
    <path d="M569.864 454.48H544.632V342H569.864V454.48Z" fill="white" />
    <path
      d="M527.133 454.48H503.117V445.36H502.813C498.101 453.112 489.589 457.216 477.581 457.216C452.045 457.216 435.325 437.608 435.325 412.072C435.325 386.84 452.501 367.232 477.125 367.232C486.853 367.232 494.757 370.12 501.901 377.264V342H527.133V454.48ZM481.685 433.656C493.997 433.656 503.269 424.384 503.269 411.92C503.269 400.216 494.301 390.792 481.837 390.792C469.981 390.792 460.557 399.608 460.557 411.92C460.557 424.688 469.525 433.656 481.685 433.656Z"
      fill="white"
    />
    <path
      d="M426.132 419.976H362.9C364.268 429.552 372.324 435.936 382.66 435.936C389.5 435.936 393.908 433.352 398.012 428.032H423.852C415.796 446.424 400.444 457.216 382.66 457.216C358.34 457.216 337.972 437.608 337.972 412.528C337.972 388.208 357.428 367.232 382.204 367.232C407.436 367.232 426.74 387.144 426.74 413.288C426.74 415.72 426.588 417.696 426.132 419.976ZM363.204 402.952H401.508C399.532 394.288 391.932 388.512 382.204 388.512C373.084 388.512 365.18 393.984 363.204 402.952Z"
      fill="white"
    />
    <path
      d="M328.848 393.832H304.072C303.92 388.968 300.424 387.448 296.32 387.448C292.064 387.448 289.024 389.88 289.024 393.072C289.024 397.632 293.128 399.912 304.832 402.952C324.896 408.272 331.432 416.328 331.432 428.64C331.432 446.272 316.232 457.368 297.08 457.368C278.08 457.368 264.552 446.576 262.728 429.4H287.808C288.568 434.72 292.368 437.152 297.384 437.152C301.792 437.152 306.2 434.568 306.2 430.616C306.2 425.904 303.312 423.472 290.696 419.52C269.416 412.984 263.792 404.624 263.792 394.744C263.792 378.024 279.448 367.232 296.472 367.232C314.712 367.232 327.632 377.264 328.848 393.832Z"
      fill="white"
    />
    <path
      d="M255.43 411.92C255.43 438.368 235.366 457.064 209.982 457.064C184.294 457.064 164.534 438.064 164.534 412.224C164.534 386.08 184.75 367.384 209.982 367.384C235.366 367.384 255.43 386.384 255.43 411.92ZM209.982 433.504C221.838 433.504 230.198 423.472 230.198 412.224C230.198 400.976 221.686 390.944 209.83 390.944C198.734 390.944 189.766 400.672 189.766 412.224C189.766 423.776 198.582 433.504 209.982 433.504Z"
      fill="white"
    />
    <path d="M151.746 454.48H126.514V342H151.746V454.48Z" fill="white" />
    <path
      d="M58.2754 457.278C69.3076 457.283 80.1144 454.082 89.4386 448.048C98.7629 442.014 106.221 433.395 110.946 423.192L92.3662 412.213L88.134 409.701C85.3808 417.034 80.2063 423.149 73.508 426.986C66.8097 430.822 59.0104 432.139 51.463 430.706C43.9157 429.273 37.0965 425.182 32.1885 419.142C27.2806 413.102 24.5935 405.494 24.5935 397.639C24.5935 389.784 27.2806 382.176 32.1885 376.136C37.0965 370.096 43.9157 366.005 51.463 364.572C59.0104 363.14 66.8097 364.456 73.508 368.292C80.2063 372.129 85.3808 378.244 88.134 385.577L92.3662 383.087L110.946 372.107C106.48 362.461 99.5671 354.218 90.9271 348.238C82.2871 342.258 72.2371 338.76 61.826 338.111C51.4148 337.461 41.024 339.682 31.7379 344.543C22.4518 349.404 14.6107 356.727 9.03289 365.746C3.45506 374.766 0.344961 385.152 0.027077 395.821C-0.290807 406.491 2.19519 417.051 7.22567 426.402C12.2562 435.753 19.6468 443.55 28.6262 448.981C37.6057 454.412 47.8449 457.278 58.2754 457.278V457.278Z"
      fill="white"
    />
    <path
      d="M892 441.375C892 448.366 897.667 454.069 904.659 454.069C911.65 454.069 917.317 448.366 917.317 441.375C917.317 434.383 911.65 428.68 904.659 428.68C897.667 428.68 892 434.383 892 441.375Z"
      fill="white"
    />
    <path
      d="M1019.58 454.167V371.037H997.074V379.833C995.012 375.903 991.773 372.755 987.833 370.848C982.98 368.839 977.77 367.889 972.538 368.058C966.733 367.97 960.968 369.063 955.58 371.274C950.465 373.33 945.835 376.473 941.995 380.495C938.243 384.596 935.322 389.418 933.4 394.68C931.281 400.436 930.231 406.546 930.304 412.697C930.231 418.869 931.249 425.005 933.308 430.807C935.125 436.089 938.006 440.922 941.764 444.993C945.445 448.899 949.883 451.976 954.794 454.025C960.128 456.261 965.85 457.37 971.614 457.287C984.552 457.287 992.915 453.363 996.843 445.56V454.545L1019.58 454.167ZM993.84 421.066C992.826 423.561 991.387 425.85 989.588 427.828C987.753 429.737 985.55 431.234 983.119 432.226C980.52 433.298 977.743 433.844 974.941 433.833C972.184 433.835 969.454 433.289 966.9 432.226C964.427 431.138 962.207 429.526 960.385 427.497C958.532 425.545 957.059 423.25 956.042 420.735C953.946 415.378 953.946 409.401 956.042 404.043C957.032 401.551 958.474 399.272 960.293 397.328C962.088 395.291 964.296 393.677 966.762 392.6C969.302 391.552 972.017 391.022 974.756 391.039C977.585 391.014 980.393 391.544 983.027 392.6C985.491 393.601 987.725 395.115 989.588 397.045C991.428 399.115 992.87 401.521 993.84 404.138C994.872 406.784 995.39 409.611 995.364 412.46C995.398 415.402 994.88 418.324 993.84 421.066Z"
      fill="white"
    />
    <path d="M1060 371.034H1035.79V454.068H1060V371.034Z" fill="white" />
    <path d="M1060 343.286H1035.79V362.197H1060V343.286Z" fill="white" />
  </g>
  <defs>
    <clipPath id="clip0_38653_4909">
      <rect
        fill="white"
        height="148"
        transform="translate(0 336)"
        width="1060"
      />
    </clipPath>
  </defs>
</svg>
