<svg
  fill="none"
  height="200"
  viewBox="0 0 1324 200"
  width="1324"
  xmlns="http://www.w3.org/2000/svg"
>
  <title>Closedloop horizontal logo on light</title>
  <g clip-path="url(#clip0_38653_4936)">
    <path
      d="M1075.27 176.6H1050.03V64.1199H1073.75V73.3919H1074.2C1080.89 65.0319 1090.16 61.2319 1100.65 61.2319C1124.67 61.2319 1141.69 80.8399 1141.69 107.136C1141.69 131.152 1124.82 151.368 1100.65 151.368C1090.77 151.368 1082.11 148.328 1075.27 140.88V176.6ZM1095.33 127.808C1107.34 127.808 1116.46 118.08 1116.46 106.376C1116.46 94.5199 1107.34 84.7919 1095.18 84.7919C1083.63 84.7919 1074.2 94.2159 1074.2 106.376C1074.2 118.232 1083.32 127.808 1095.33 127.808Z"
      fill="#1F222B"
    />
    <path
      d="M1037.26 105.92C1037.26 132.368 1017.2 151.064 991.815 151.064C966.127 151.064 946.367 132.064 946.367 106.224C946.367 80.0798 966.583 61.3838 991.815 61.3838C1017.2 61.3838 1037.26 80.3838 1037.26 105.92ZM991.815 127.504C1003.67 127.504 1012.03 117.472 1012.03 106.224C1012.03 94.9758 1003.52 84.9438 991.663 84.9438C980.567 84.9438 971.599 94.6718 971.599 106.224C971.599 117.776 980.415 127.504 991.815 127.504Z"
      fill="#1F222B"
    />
    <path
      d="M937.549 105.92C937.549 132.368 917.485 151.064 892.101 151.064C866.413 151.064 846.653 132.064 846.653 106.224C846.653 80.0798 866.869 61.3838 892.101 61.3838C917.485 61.3838 937.549 80.3838 937.549 105.92ZM892.101 127.504C903.957 127.504 912.317 117.472 912.317 106.224C912.317 94.9758 903.805 84.9438 891.949 84.9438C880.853 84.9438 871.885 94.6718 871.885 106.224C871.885 117.776 880.701 127.504 892.101 127.504Z"
      fill="#1F222B"
    />
    <path d="M833.864 148.48H808.632V36H833.864V148.48Z" fill="#1F222B" />
    <path
      d="M791.133 148.48H767.117V139.36H766.813C762.101 147.112 753.589 151.216 741.581 151.216C716.045 151.216 699.325 131.608 699.325 106.072C699.325 80.84 716.501 61.232 741.125 61.232C750.853 61.232 758.757 64.12 765.901 71.264V36H791.133V148.48ZM745.685 127.656C757.997 127.656 767.269 118.384 767.269 105.92C767.269 94.216 758.301 84.792 745.837 84.792C733.981 84.792 724.557 93.608 724.557 105.92C724.557 118.688 733.525 127.656 745.685 127.656Z"
      fill="#1F222B"
    />
    <path
      d="M690.132 113.976H626.9C628.268 123.552 636.324 129.936 646.66 129.936C653.5 129.936 657.908 127.352 662.012 122.032H687.852C679.796 140.424 664.444 151.216 646.66 151.216C622.34 151.216 601.972 131.608 601.972 106.528C601.972 82.2079 621.428 61.2319 646.204 61.2319C671.436 61.2319 690.74 81.1439 690.74 107.288C690.74 109.72 690.588 111.696 690.132 113.976ZM627.204 96.9519H665.508C663.532 88.2879 655.932 82.5119 646.204 82.5119C637.084 82.5119 629.18 87.9839 627.204 96.9519Z"
      fill="#1F222B"
    />
    <path
      d="M592.848 87.8319H568.072C567.92 82.9679 564.424 81.4479 560.32 81.4479C556.064 81.4479 553.024 83.8799 553.024 87.0719C553.024 91.6319 557.128 93.9119 568.832 96.9519C588.896 102.272 595.432 110.328 595.432 122.64C595.432 140.272 580.232 151.368 561.08 151.368C542.08 151.368 528.552 140.576 526.728 123.4H551.808C552.568 128.72 556.368 131.152 561.384 131.152C565.792 131.152 570.2 128.568 570.2 124.616C570.2 119.904 567.312 117.472 554.696 113.52C533.416 106.984 527.792 98.6239 527.792 88.7439C527.792 72.0239 543.448 61.2319 560.472 61.2319C578.712 61.2319 591.632 71.2639 592.848 87.8319Z"
      fill="#1F222B"
    />
    <path
      d="M519.43 105.92C519.43 132.368 499.366 151.064 473.982 151.064C448.294 151.064 428.534 132.064 428.534 106.224C428.534 80.0798 448.75 61.3838 473.982 61.3838C499.366 61.3838 519.43 80.3838 519.43 105.92ZM473.982 127.504C485.838 127.504 494.198 117.472 494.198 106.224C494.198 94.9758 485.686 84.9438 473.83 84.9438C462.734 84.9438 453.766 94.6718 453.766 106.224C453.766 117.776 462.582 127.504 473.982 127.504Z"
      fill="#1F222B"
    />
    <path d="M415.746 148.48H390.514V36H415.746V148.48Z" fill="#1F222B" />
    <path
      d="M322.275 151.278C333.308 151.283 344.114 148.082 353.439 142.048C362.763 136.014 370.221 127.395 374.946 117.192L356.366 106.213L352.134 103.701C349.381 111.034 344.206 117.149 337.508 120.986C330.81 124.822 323.01 126.139 315.463 124.706C307.916 123.273 301.096 119.182 296.189 113.142C291.281 107.102 288.594 99.4944 288.594 91.639C288.594 83.7837 291.281 76.1761 296.189 70.1362C301.096 64.0962 307.916 60.005 315.463 58.5723C323.01 57.1395 330.81 58.4557 337.508 62.2924C344.206 66.1291 349.381 72.2442 352.134 79.577L356.366 77.0866L374.946 66.1073C370.48 56.4608 363.567 48.2175 354.927 42.2377C346.287 36.2578 336.237 32.7604 325.826 32.1106C315.415 31.4608 305.024 33.6823 295.738 38.5434C286.452 43.4044 278.611 50.7268 273.033 59.7464C267.455 68.7661 264.345 79.1523 264.027 89.8214C263.709 100.491 266.195 111.051 271.226 120.402C276.256 129.753 283.647 137.55 292.626 142.981C301.606 148.412 311.845 151.278 322.275 151.278V151.278Z"
      fill="#1F222B"
    />
    <path
      d="M1156 135.375C1156 142.366 1161.67 148.069 1168.66 148.069C1175.65 148.069 1181.32 142.366 1181.32 135.375C1181.32 128.383 1175.65 122.68 1168.66 122.68C1161.67 122.68 1156 128.383 1156 135.375Z"
      fill="#1F222B"
    />
    <path
      d="M1283.58 148.167V65.0373H1261.07V73.8326C1259.01 69.9035 1255.77 66.7546 1251.83 64.8482C1246.98 62.8391 1241.77 61.8889 1236.54 62.0583C1230.73 61.9695 1224.97 63.0625 1219.58 65.2738C1214.47 67.3299 1209.83 70.4726 1205.99 74.4946C1202.24 78.5963 1199.32 83.4176 1197.4 88.6805C1195.28 94.4363 1194.23 100.546 1194.3 106.697C1194.23 112.869 1195.25 119.005 1197.31 124.807C1199.12 130.089 1202.01 134.922 1205.76 138.993C1209.45 142.899 1213.88 145.976 1218.79 148.025C1224.13 150.261 1229.85 151.37 1235.61 151.287C1248.55 151.287 1256.92 147.363 1260.84 139.56V148.545L1283.58 148.167ZM1257.84 115.066C1256.83 117.561 1255.39 119.85 1253.59 121.828C1251.75 123.737 1249.55 125.234 1247.12 126.226C1244.52 127.298 1241.74 127.844 1238.94 127.833C1236.18 127.835 1233.45 127.289 1230.9 126.226C1228.43 125.138 1226.21 123.526 1224.39 121.497C1222.53 119.545 1221.06 117.25 1220.04 114.735C1217.95 109.378 1217.95 103.401 1220.04 98.0432C1221.03 95.5505 1222.47 93.2722 1224.29 91.3285C1226.09 89.2907 1228.3 87.6772 1230.76 86.5999C1233.3 85.5519 1236.02 85.0218 1238.76 85.0394C1241.58 85.0138 1244.39 85.5435 1247.03 86.5999C1249.49 87.6014 1251.73 89.1149 1253.59 91.0448C1255.43 93.1148 1256.87 95.5211 1257.84 98.1377C1258.87 100.784 1259.39 103.611 1259.36 106.46C1259.4 109.402 1258.88 112.324 1257.84 115.066Z"
      fill="#1F222B"
    />
    <path d="M1324 65.0337H1299.79V148.068H1324V65.0337Z" fill="#1F222B" />
    <path d="M1324 37.2856H1299.79V56.1974H1324V37.2856Z" fill="#1F222B" />
  </g>
  <path
    d="M0.849349 99.3529C0.679638 112.435 3.11888 125.42 8.02553 137.556C12.9322 149.691 20.2085 160.734 29.4324 170.045C38.6562 179.356 49.6439 186.749 61.7578 191.794C73.8716 196.84 86.8705 199.438 100 199.438C113.13 199.438 126.129 196.84 138.243 191.794C150.356 186.749 161.344 179.356 170.568 170.045C179.792 160.734 187.068 149.691 191.975 137.556C196.881 125.42 199.321 112.435 199.151 99.3529C199.151 99.0227 199.151 98.709 199.151 98.3789H143.499C143.499 98.709 143.499 99.0227 143.499 99.3529C143.499 107.931 140.946 116.317 136.163 123.45C131.38 130.582 124.581 136.141 116.627 139.423C108.673 142.705 99.9214 143.563 91.4781 141.888C83.0348 140.214 75.2796 136.081 69.1934 130.014C63.1071 123.947 58.9631 116.218 57.2856 107.804C55.6081 99.3898 56.4724 90.669 59.7692 82.7445C63.0659 74.8199 68.6471 68.0476 75.8067 63.284C82.9664 58.5205 91.3829 55.9796 99.9919 55.9829H100.141L100.075 0.56107C87.0482 0.550224 74.1472 3.09755 62.1091 8.05745C50.071 13.0173 39.1318 20.2926 29.9168 29.4673C20.7018 38.6421 13.3916 49.5365 8.40404 61.5278C3.41648 73.5192 0.849345 86.3724 0.849349 99.3529Z"
    fill="#1F222B"
  />
  <path
    d="M114.307 1.60205V58.4272C120.362 60.5229 125.878 63.9255 130.461 68.3919C135.043 72.8583 138.579 78.2782 140.816 84.2643H198.008C194.758 63.3792 184.876 44.082 169.812 29.2046C154.748 14.3273 135.294 4.65314 114.307 1.60205V1.60205Z"
    fill="#41A3FF"
  />
  <defs>
    <clipPath id="clip0_38653_4936">
      <rect
        fill="white"
        height="148"
        transform="translate(264 30)"
        width="1060"
      />
    </clipPath>
  </defs>
</svg>
