<svg xmlns="http://www.w3.org/2000/svg" xmlns:xlink="http://www.w3.org/1999/xlink" width="1230" height="240">
  <defs>
    <path id="a" d="m83.406 66.84 3.988 2.304 17.568 10.144c-8.836 18.62-27.804 31.492-49.788 31.492C24.754 110.78.09 86.12.09 55.696.09 25.276 24.754.612 55.174.612c21.984 0 40.952 12.88 49.788 31.496L87.394 42.252l-3.988 2.304C78.922 32.912 67.662 24.64 54.442 24.64c-17.156 0-31.06 13.904-31.06 31.056 0 17.156 13.904 31.06 31.06 31.06 13.22 0 24.48-8.272 28.964-19.916Z"/>
    <path id="c" d="M.72.984h23.548v105.424H.72z"/>
    <path id="e" d="M43.436 22.666c-2.76 0-5.312.532-7.664 1.584a19.23 19.23 0 0 0-6.048 4.308c-1.696 1.808-3.048 3.928-4.06 6.368-1.008 2.448-1.516 5.044-1.516 7.808 0 2.872.472 5.556 1.44 8.048.952 2.496 2.3 4.676 4.06 6.528a18.332 18.332 0 0 0 6.124 4.304c2.352 1.012 4.904 1.508 7.664 1.508 2.652 0 5.148-.496 7.492-1.508a17.547 17.547 0 0 0 6.052-4.304c1.7-1.852 3.028-4.004 3.988-6.448.956-2.444 1.432-5.096 1.432-7.968 0-2.864-.508-5.52-1.512-7.968-1.012-2.44-2.372-4.56-4.076-6.368a19.18 19.18 0 0 0-5.972-4.308c-2.28-1.052-4.752-1.584-7.404-1.584Zm0 62.428c-6.224 0-11.932-1.056-17.152-3.156-5.212-2.108-9.724-5.008-13.516-8.696-3.792-3.688-6.772-8.084-8.928-13.196C1.68 54.934.6 49.378.6 43.366c0-6.104 1.052-11.772 3.148-16.988 2.12-5.212 5.072-9.724 8.864-13.512 3.796-3.792 8.296-6.768 13.508-8.928C31.344 1.778 37.056.694 43.264.694c6.124 0 11.78 1.056 17.004 3.156 5.208 2.112 9.708 5.064 13.508 8.852 3.8 3.796 6.772 8.276 8.932 13.436 2.156 5.164 3.24 10.756 3.24 16.756 0 6.004-1.084 11.596-3.24 16.756-2.16 5.164-5.132 9.64-8.932 13.436-3.8 3.792-8.268 6.744-13.432 8.852-5.172 2.1-10.804 3.156-16.908 3.156Z"/>
    <path id="g" d="M33.46.695c8.329 0 15.073 2.212 20.237 6.64 5.152 4.424 8.116 10.484 8.848 18.168H39.46c-.416-3.892-2.676-5.848-6.788-5.848-2.208 0-4.012.48-5.372 1.424-1.372.952-2.06 2.16-2.06 3.636 0 1.792.956 3.404 2.856 4.82 1.904 1.42 5.032 2.72 9.364 3.876 4.128 1.156 7.48 2.16 10.08 3 2.592.852 4.732 1.692 6.424 2.532 1.696.848 3.088 1.816 4.208 2.92 1.104 1.108 2.244 2.456 3.404 4.032 2.444 3.584 3.656 7.692 3.656 12.332 0 3.792-.848 7.348-2.536 10.668-1.676 3.32-3.996 6.164-6.944 8.532-2.956 2.376-6.432 4.244-10.432 5.616-4.008 1.364-8.324 2.052-12.964 2.052-4.42 0-8.48-.612-12.168-1.82-3.688-1.208-6.904-2.94-9.652-5.212-2.744-2.264-4.944-5-6.628-8.216-1.688-3.216-2.744-6.88-3.164-10.984H24.14c.64 4.844 3.7 7.272 9.176 7.272 2.248 0 4.212-.584 5.876-1.744 1.664-1.156 2.488-2.58 2.488-4.268 0-3.588-3.064-6.216-9.2-7.908l-13.964-3.628a20.996 20.996 0 0 1-6.744-3.084c-2.064-1.424-3.836-3.08-5.32-4.976-1.484-1.904-2.644-4.028-3.492-6.404a21.834 21.834 0 0 1-1.264-7.348c0-3.584.804-6.984 2.432-10.196 1.62-3.216 3.86-5.976 6.748-8.3 2.88-2.32 6.244-4.164 10.132-5.532C24.88 1.383 29.037.695 33.46.695Z"/>
    <path id="i" d="M60.094 34.518c-.844-4.108-2.872-7.428-6.092-9.956-3.212-2.532-7.144-3.792-11.772-3.792-4.636 0-8.508 1.184-11.616 3.552-3.108 2.376-5.136 5.772-6.096 10.196h35.576Zm-4.268 24.344c.104-.216.26-.396.476-.556a6.85 6.85 0 0 0 .62-.548h24.036c-3.692 8.532-8.908 15.22-15.648 20.064-6.756 4.856-14.328 7.272-22.764 7.272-5.792 0-11.224-1.08-16.276-3.244-5.06-2.152-9.456-5.132-13.204-8.924-3.736-3.792-6.688-8.24-8.86-13.352C2.058 54.462.978 48.958.978 43.05c0-5.9 1.08-11.432 3.228-16.596 2.172-5.16 5.1-9.636 8.784-13.436 3.68-3.788 8.036-6.792 13.036-9C31.03 1.802 36.382.694 42.074.694c5.896 0 11.408 1.108 16.516 3.324 5.1 2.208 9.536 5.236 13.276 9.084 3.74 3.844 6.664 8.408 8.776 13.672 2.104 5.272 3.152 10.96 3.152 17.076 0 1.36-.044 2.44-.156 3.232-.1.796-.26 1.876-.464 3.24H23.898c.528 4.424 2.372 7.984 5.532 10.668 3.164 2.692 7.112 4.028 11.856 4.028 2.948 0 5.472-.412 7.572-1.26 2.124-.84 4.44-2.48 6.968-4.896Z"/>
    <path id="k" d="M44.11 46.666c-2.945 0-5.665.504-8.133 1.508-2.48 1.012-4.612 2.392-6.404 4.144-1.792 1.756-3.192 3.876-4.188 6.368-1.008 2.496-1.504 5.18-1.504 8.048 0 2.972.496 5.708 1.504 8.204.996 2.496 2.372 4.648 4.112 6.46 1.736 1.796 3.84 3.204 6.32 4.216 2.472 1.012 5.136 1.508 7.984 1.508 5.896 0 10.74-1.912 14.54-5.724 3.796-3.828 5.692-8.768 5.692-14.82 0-2.872-.508-5.496-1.504-7.892-1.004-2.38-2.396-4.484-4.188-6.284a19.339 19.339 0 0 0-6.32-4.228c-2.432-1.004-5.06-1.508-7.912-1.508ZM86.632.986v105.5H64.341V98.11c-3.168 3.876-6.632 6.668-10.38 8.4-3.752 1.728-8.376 2.584-13.864 2.584-5.804 0-11.14-1.056-16-3.156-4.864-2.108-9.064-5.032-12.592-8.772-3.54-3.74-6.292-8.196-8.24-13.36C1.31 78.642.333 72.958.333 66.742c0-6.012.996-11.596 3.008-16.756 2.012-5.164 4.748-9.616 8.24-13.364 3.488-3.736 7.632-6.66 12.444-8.772 4.804-2.1 10.008-3.156 15.608-3.156 4.96 0 9.296.756 12.992 2.276 3.696 1.516 7.18 3.848 10.456 6.98V.986h23.552Z"/>
    <path id="m" d="M.543 106.41V.986h26.872v81.712h31.132v23.712z"/>
    <path id="o" d="M43.71 22.666c-2.76 0-5.311.532-7.647 1.584-2.344 1.064-4.372 2.504-6.06 4.308-1.7 1.808-3.06 3.928-4.06 6.368-1.02 2.448-1.516 5.044-1.516 7.808 0 2.872.476 5.556 1.424 8.048.964 2.496 2.32 4.676 4.076 6.528a18.26 18.26 0 0 0 6.136 4.304c2.336 1.012 4.888 1.508 7.648 1.508 2.648 0 5.152-.496 7.488-1.508a17.563 17.563 0 0 0 6.056-4.304c1.696-1.852 3.028-4.004 3.988-6.448.956-2.444 1.424-5.096 1.424-7.968 0-2.864-.5-5.52-1.516-7.968-1-2.44-2.36-4.56-4.056-6.368a19.338 19.338 0 0 0-5.976-4.308c-2.28-1.052-4.76-1.584-7.408-1.584Zm0 62.428c-6.223 0-11.94-1.056-17.151-3.156-5.224-2.108-9.72-5.008-13.52-8.696-3.792-3.688-6.768-8.084-8.924-13.196C1.95 54.934.875 49.378.875 43.366c0-6.104 1.048-11.772 3.16-16.988 2.1-5.212 5.052-9.724 8.852-13.512 3.792-3.792 8.296-6.768 13.516-8.928C31.619 1.778 37.327.694 43.55.694c6.108 0 11.772 1.056 16.992 3.156 5.216 2.112 9.72 5.064 13.512 8.852 3.788 3.796 6.768 8.276 8.924 13.436 2.152 5.164 3.244 10.756 3.244 16.756 0 6.004-1.092 11.596-3.244 16.756-2.156 5.164-5.136 9.64-8.924 13.436-3.792 3.792-8.276 6.744-13.436 8.852-5.16 2.1-10.816 3.156-16.908 3.156Z"/>
    <path id="q" d="M43.754 22.666c-2.764 0-5.316.532-7.652 1.584-2.344 1.064-4.364 2.504-6.06 4.308-1.7 1.808-3.056 3.928-4.06 6.368-1.016 2.448-1.516 5.044-1.516 7.808 0 2.872.48 5.556 1.436 8.048.948 2.496 2.308 4.676 4.06 6.528a18.355 18.355 0 0 0 6.14 4.304c2.336 1.012 4.888 1.508 7.652 1.508 2.656 0 5.148-.496 7.488-1.508a17.547 17.547 0 0 0 6.052-4.304 20.54 20.54 0 0 0 3.988-6.448c.956-2.444 1.432-5.096 1.432-7.968 0-2.864-.504-5.52-1.52-7.968-1.004-2.44-2.356-4.56-4.052-6.368a19.432 19.432 0 0 0-5.976-4.308c-2.288-1.052-4.756-1.584-7.412-1.584Zm-.004 62.428c-6.216 0-11.932-1.056-17.152-3.156-5.212-2.108-9.72-5.008-13.512-8.696-3.796-3.688-6.78-8.084-8.932-13.196C1.998 54.934.918 49.378.918 43.366c0-6.104 1.052-11.772 3.16-16.988 2.104-5.212 5.06-9.724 8.848-13.512 3.796-3.792 8.3-6.768 13.52-8.928C31.662 1.778 37.374.694 43.59.694c6.112 0 11.78 1.056 16.992 3.156 5.216 2.112 9.724 5.064 13.516 8.852 3.792 3.796 6.768 8.276 8.924 13.436 2.164 5.164 3.236 10.756 3.236 16.756 0 6.004-1.072 11.596-3.236 16.756-2.156 5.164-5.132 9.64-8.924 13.436-3.792 3.792-8.272 6.744-13.444 8.852-5.152 2.1-10.804 3.156-16.904 3.156Z"/>
    <path id="s" d="M43.035 22.666c-2.748 0-5.324.532-7.704 1.584a20.657 20.657 0 0 0-6.264 4.308 20.632 20.632 0 0 0-4.28 6.292c-1.06 2.396-1.592 4.968-1.592 7.728 0 2.872.504 5.548 1.504 8.044 1.012 2.496 2.416 4.672 4.208 6.536a19.931 19.931 0 0 0 6.348 4.38c2.432 1.052 5.08 1.584 7.936 1.584 2.748 0 5.34-.496 7.772-1.508 2.436-1.012 4.556-2.444 6.348-4.304 1.8-1.852 3.2-4.004 4.208-6.448 1-2.444 1.512-5.096 1.512-7.968 0-2.864-.512-5.52-1.512-7.968a20.28 20.28 0 0 0-4.208-6.444c-1.792-1.864-3.912-3.296-6.348-4.308-2.432-1.004-5.076-1.508-7.928-1.508ZM.599 108.806V3.294h22.284v8.696c3.048-3.972 6.556-6.852 10.512-8.628C37.343 1.578 42.163.694 47.855.694S58.767 1.75 63.499 3.85c4.744 2.112 8.824 5.064 12.252 8.852 3.416 3.796 6.084 8.324 7.984 13.6 1.892 5.264 2.844 11.012 2.844 17.228 0 5.9-.972 11.404-2.928 16.516-1.944 5.112-4.66 9.508-8.144 13.196-3.476 3.688-7.556 6.588-12.248 8.696-4.684 2.1-9.772 3.156-15.244 3.156-5.064 0-9.484-.78-13.28-2.348-3.792-1.572-7.272-4.084-10.44-7.54v33.6H.599Z"/>
    <path id="u" d="M.884.668H11.84v10.744H.884z"/>
    <path id="w" d="M19.711 9.93a9.061 9.061 0 0 0-3.468.668 7.88 7.88 0 0 0-2.796 1.904 9.154 9.154 0 0 0-1.844 2.856c-.452 1.08-.672 2.256-.672 3.524 0 1.268.22 2.444.672 3.524a9.034 9.034 0 0 0 1.876 2.856c.8.824 1.748 1.46 2.828 1.904a8.965 8.965 0 0 0 3.468.68c1.272 0 2.46-.228 3.544-.68a8.248 8.248 0 0 0 2.8-1.86 9.23 9.23 0 0 0 1.844-2.864c.444-1.096.668-2.308.668-3.628 0-1.268-.224-2.444-.668-3.524a9.228 9.228 0 0 0-1.844-2.824c-.78-.804-1.724-1.424-2.832-1.868a9.555 9.555 0 0 0-3.576-.668Zm19.388-8.644v35.156h-9.84v-3.788c-1.688 3.3-5.324 4.948-10.916 4.948-2.672 0-5.104-.456-7.28-1.364-2.188-.916-4.068-2.196-5.632-3.832-1.584-1.64-2.8-3.604-3.664-5.9-.872-2.3-1.304-4.844-1.304-7.66 0-2.76.44-5.296 1.336-7.62.892-2.316 2.14-4.304 3.732-5.968 1.596-1.664 3.5-2.952 5.7-3.868C13.443.478 15.887.026 18.563.026c2.668 0 4.88.396 6.612 1.192 1.74.796 3.104 2.056 4.084 3.788v-3.72h9.84Z"/>
    <path id="y" d="M.116 47.412V12.288h10.476v35.124H.116Zm0-38.848V.556h10.476v8.008H.116Z"/>
    <path id="A" d="M172.562 118.787h67.164c.004.4.012.792.012 1.192 0 66.104-53.584 119.688-119.688 119.688C53.95 239.667.362 186.083.362 119.98S53.95.291 120.05.291h.084l.096 67.152c-.06 0-.12-.004-.18-.004-29.016 0-52.54 23.52-52.54 52.54 0 29.016 23.524 52.54 52.54 52.54s52.54-23.524 52.54-52.54c0-.4-.02-.792-.028-1.192Z"/>
    <path id="C" d="M.328 69.385V.557c51.928 7.512 93.08 48.336 101.02 100.128H32.312C26.876 86.053 15.096 74.529.328 69.385Z"/>
  </defs>
  <g fill="none" fill-rule="evenodd">
    <g transform="translate(292 67)">
      <mask id="b" fill="#fff">
        <use xlink:href="#a"/>
      </mask>
      <path fill="#207DBA" mask="url(#b)" d="M-24.91-24.388h154.872V135.78H-24.91z"/>
    </g>
    <g transform="translate(411 69)">
      <mask id="d" fill="#fff">
        <use xlink:href="#c"/>
      </mask>
      <path fill="#207DBA" mask="url(#d)" d="M-24.28-24.016h73.548v155.424H-24.28z"/>
    </g>
    <g transform="translate(447 93)">
      <mask id="f" fill="#fff">
        <use xlink:href="#e"/>
      </mask>
      <path fill="#207DBA" mask="url(#f)" d="M-24.4-24.306h135.348v134.4H-24.4z"/>
    </g>
    <g transform="translate(539 93)">
      <mask id="h" fill="#fff">
        <use xlink:href="#g"/>
      </mask>
      <path fill="#207DBA" mask="url(#h)" d="M-24.255-24.305H90.233v134.4H-24.255z"/>
    </g>
    <g transform="translate(611 93)">
      <mask id="j" fill="#fff">
        <use xlink:href="#i"/>
      </mask>
      <path fill="#207DBA" mask="url(#j)" d="M-24.022-24.306h132.816v134.4H-24.022z"/>
    </g>
    <g transform="translate(703 69)">
      <mask id="l" fill="#fff">
        <use xlink:href="#k"/>
      </mask>
      <path fill="#207DBA" mask="url(#l)" d="M-24.667-24.014h136.3v158.108h-136.3z"/>
    </g>
    <g transform="translate(806 69)">
      <mask id="n" fill="#fff">
        <use xlink:href="#m"/>
      </mask>
      <path fill="#4DA3D1" mask="url(#n)" d="M-24.457-24.014H83.547V131.41H-24.457z"/>
    </g>
    <g transform="translate(870 93)">
      <mask id="p" fill="#fff">
        <use xlink:href="#o"/>
      </mask>
      <path fill="#4DA3D1" mask="url(#p)" d="M-24.125-24.306h135.348v134.4H-24.125z"/>
    </g>
    <g transform="translate(964 93)">
      <mask id="r" fill="#fff">
        <use xlink:href="#q"/>
      </mask>
      <path fill="#4DA3D1" mask="url(#r)" d="M-24.082-24.306h135.34v134.4h-135.34z"/>
    </g>
    <g transform="translate(1062 93)">
      <mask id="t" fill="#fff">
        <use xlink:href="#s"/>
      </mask>
      <path fill="#4DA3D1" mask="url(#t)" d="M-24.401-24.306h135.98v158.112h-135.98z"/>
    </g>
    <g transform="translate(1156 164)">
      <mask id="v" fill="#fff">
        <use xlink:href="#u"/>
      </mask>
      <path fill="#207DBA" mask="url(#v)" d="M-24.116-24.332H36.84v60.744h-60.956z"/>
    </g>
    <g transform="translate(1173 139)">
      <mask id="x" fill="#fff">
        <use xlink:href="#w"/>
      </mask>
      <path fill="#207DBA" mask="url(#x)" d="M-24.537-24.974h88.636v87.576h-88.636z"/>
    </g>
    <g transform="translate(1219 128)">
      <mask id="z" fill="#fff">
        <use xlink:href="#y"/>
      </mask>
      <path fill="#207DBA" mask="url(#z)" d="M-24.884-24.444h60.476v96.856h-60.476z"/>
    </g>
    <mask id="B" fill="#fff">
      <use xlink:href="#A"/>
    </mask>
    <path fill="#207DBA" mask="url(#B)" d="M-24.638-24.709h289.376v289.376H-24.638z"/>
    <g transform="translate(137 1)">
      <mask id="D" fill="#fff">
        <use xlink:href="#C"/>
      </mask>
      <path fill="#F7C31A" mask="url(#D)" d="M-24.672-24.443h151.02v150.128h-151.02z"/>
    </g>
  </g>
</svg>