<svg
  fill="none"
  height="1024"
  viewBox="0 0 1024 1024"
  width="1024"
  xmlns="http://www.w3.org/2000/svg"
>
  <title>Closedloop square icon</title>
  <rect fill="#1F222B" height="1024" width="1024" />
  <path
    d="M103.499 509.335C102.8 563.233 112.849 616.733 133.065 666.73C153.28 716.728 183.259 762.227 221.261 800.587C259.263 838.948 304.532 869.406 354.441 890.194C404.351 910.983 457.906 921.687 512 921.687C566.094 921.687 619.65 910.983 669.559 890.194C719.468 869.406 764.737 838.948 802.739 800.587C840.741 762.227 870.72 716.728 890.935 666.73C911.151 616.733 921.201 563.233 920.501 509.335C920.501 507.975 920.501 506.682 920.501 505.322H691.216C691.216 506.682 691.216 507.975 691.216 509.335C691.216 544.678 680.698 579.228 660.991 608.614C641.284 638 613.274 660.902 580.504 674.424C547.734 687.947 511.676 691.481 476.889 684.581C442.103 677.681 410.152 660.656 385.076 635.66C360.001 610.664 342.928 578.819 336.016 544.153C329.105 509.487 332.666 473.557 346.248 440.908C359.831 408.259 382.825 380.357 412.323 360.731C441.821 341.105 476.497 330.637 511.966 330.651H512.58L512.307 102.313C458.638 102.268 405.486 112.763 355.889 133.198C306.292 153.632 261.223 183.606 223.257 221.406C185.291 259.206 155.173 304.091 134.624 353.496C114.075 402.9 103.499 455.855 103.499 509.335Z"
    fill="white"
  />
  <path
    d="M570.944 106.602V340.721C595.892 349.355 618.618 363.374 637.498 381.776C656.378 400.177 670.945 422.507 680.16 447.17H915.793C902.405 361.124 861.69 281.619 799.625 220.324C737.56 159.029 657.412 119.172 570.944 106.602V106.602Z"
    fill="#41A3FF"
  />
</svg>
