<svg
  fill="none"
  height="1024"
  viewBox="0 0 1024 1024"
  width="1024"
  xmlns="http://www.w3.org/2000/svg"
>
  <title>Closedloop icon on dark</title>
  <path
    d="M4.34808 508.688C3.47916 575.669 15.9681 642.154 41.0901 704.286C66.2122 766.419 103.467 822.961 150.693 870.633C197.919 918.304 254.176 956.155 316.199 981.989C378.222 1007.82 444.777 1021.13 512 1021.13C579.224 1021.13 645.778 1007.82 707.801 981.989C769.824 956.155 826.081 918.304 873.307 870.633C920.533 822.961 957.788 766.419 982.91 704.286C1008.03 642.154 1020.52 575.669 1019.65 508.688C1019.65 506.998 1019.65 505.392 1019.65 503.701H734.716C734.716 505.392 734.716 506.998 734.716 508.688C734.716 552.61 721.644 595.546 697.154 632.064C672.664 668.583 637.856 697.044 597.131 713.848C556.407 730.652 511.597 735.045 468.367 726.47C425.138 717.895 385.431 696.738 354.269 665.675C323.108 634.611 301.891 595.037 293.302 551.957C284.713 508.877 289.138 464.227 306.018 423.653C322.897 383.08 351.472 348.405 388.13 324.016C424.787 299.626 467.88 286.617 511.958 286.634H512.721L512.382 2.8742C445.686 2.81867 379.633 15.861 317.998 41.2556C256.363 66.6503 200.354 103.9 153.173 150.874C105.993 197.849 68.5644 253.628 43.0281 315.024C17.4918 376.42 4.34806 442.228 4.34808 508.688Z"
    fill="white"
  />
  <path
    d="M585.251 8.20435V299.149C616.254 309.879 644.496 327.3 667.958 350.168C691.421 373.036 709.524 400.786 720.975 431.435H1013.8C997.163 324.504 946.567 225.702 869.437 149.53C792.308 73.3574 692.706 23.8259 585.251 8.20435V8.20435Z"
    fill="#41A3FF"
  />
</svg>
